<?xml version="1.0" standalone="no"?>
<!DOCTYPE svg PUBLIC "-//W3C//DTD SVG 20010904//EN"
 "http://www.w3.org/TR/2001/REC-SVG-20010904/DTD/svg10.dtd">
<svg version="1.0" xmlns="http://www.w3.org/2000/svg"
 width="1320.000000pt" height="1320.000000pt" viewBox="0 0 1320.000000 1320.000000"
 preserveAspectRatio="xMidYMid meet">
<metadata>
Created by potrace 1.11, written by Peter Selinger 2001-2013
</metadata>
<g transform="translate(0.000000,1320.000000) scale(0.100000,-0.100000)"
fill="#000000" stroke="none">
<path d="M7405 13005 c-22 -7 -82 -26 -132 -41 -51 -16 -93 -32 -93 -36 0 -4
-6 -8 -14 -8 -13 0 -66 -61 -66 -75 0 -3 -11 -21 -24 -38 -13 -18 -27 -43 -31
-57 -4 -14 -13 -32 -20 -40 -8 -8 -23 -40 -35 -70 -33 -86 -44 -110 -51 -110
-4 0 -9 -17 -12 -38 -4 -20 -17 -60 -30 -87 -13 -28 -30 -75 -37 -105 -7 -30
-16 -59 -20 -65 -5 -5 -11 -31 -15 -58 -4 -26 -11 -50 -16 -53 -5 -3 -9 -16
-9 -29 0 -13 -4 -26 -9 -29 -5 -3 -14 -36 -21 -73 -7 -38 -15 -72 -19 -78 -13
-21 -31 -82 -37 -125 -4 -25 -11 -51 -16 -57 -6 -7 -8 -23 -6 -35 4 -23 4 -23
-118 -23 -84 1 -126 5 -137 13 -12 10 -25 11 -58 2 -33 -9 -44 -9 -50 1 -6 10
-16 10 -49 0 -55 -16 -152 -21 -167 -9 -7 6 -27 7 -45 4 -18 -4 -60 -8 -93
-10 -79 -4 -204 -22 -235 -34 -19 -7 -32 -6 -52 6 -24 14 -30 13 -73 -7 -51
-24 -59 -25 -116 -15 -24 4 -63 -3 -123 -21 -48 -15 -94 -24 -102 -21 -15 6
-101 -19 -541 -153 -128 -39 -238 -71 -244 -71 -6 0 -18 -9 -27 -19 -10 -11
-57 -31 -107 -46 -89 -27 -125 -47 -125 -70 0 -10 -43 -23 -137 -41 -13 -3
-25 -14 -29 -28 -4 -17 -17 -27 -47 -35 -23 -7 -58 -23 -77 -36 -19 -13 -50
-26 -68 -30 -18 -4 -39 -17 -47 -29 -9 -13 -38 -29 -69 -39 -42 -14 -55 -23
-58 -39 -2 -13 -12 -24 -25 -28 -13 -3 -32 -13 -43 -22 -11 -10 -32 -21 -47
-24 -15 -4 -35 -17 -45 -29 -9 -12 -35 -27 -57 -34 -30 -8 -42 -18 -47 -36 -3
-14 -12 -25 -18 -25 -7 0 -22 -9 -34 -20 -12 -11 -27 -20 -35 -20 -7 0 -26
-13 -40 -30 -15 -16 -32 -30 -39 -30 -6 0 -20 -7 -30 -17 -17 -15 -18 -15 -18
11 0 21 -6 28 -30 33 -16 3 -30 9 -30 14 0 11 -99 109 -110 109 -4 0 -24 15
-43 33 -67 62 -149 132 -161 136 -6 2 -20 12 -31 22 -48 44 -82 72 -107 87
-16 9 -28 20 -28 24 0 4 -6 8 -14 8 -8 0 -16 3 -18 8 -5 11 -86 73 -150 115
-31 21 -60 42 -63 47 -3 6 -15 10 -26 10 -10 0 -19 4 -19 8 0 9 -21 20 -78 44
-17 7 -32 16 -32 20 0 5 -9 8 -19 8 -11 0 -23 4 -26 10 -3 5 -16 10 -28 10
-12 0 -38 2 -57 5 -25 4 -73 -6 -165 -34 -119 -37 -132 -43 -168 -83 -24 -26
-37 -50 -35 -64 1 -12 -3 -29 -11 -38 -16 -20 -26 -189 -12 -214 7 -12 5 -22
-6 -34 -15 -16 -14 -24 2 -85 10 -38 18 -80 17 -94 -1 -14 14 -79 33 -144 26
-91 32 -122 23 -132 -11 -14 5 -75 84 -321 17 -51 28 -95 27 -96 -13 -12 -160
-76 -174 -76 -9 0 -32 -7 -51 -16 -41 -20 -46 -56 -12 -99 20 -26 25 -27 89
-23 42 2 74 9 86 19 10 9 32 21 48 27 17 5 38 13 48 17 9 4 17 3 17 -1 0 -15
-63 -51 -102 -58 -21 -4 -38 -10 -38 -14 0 -5 -15 -13 -33 -20 -17 -6 -48 -25
-66 -41 -20 -17 -57 -35 -85 -42 -54 -13 -150 -70 -169 -101 -9 -13 -24 -18
-57 -18 -58 -1 -80 -18 -80 -62 0 -46 22 -64 87 -71 80 -9 114 0 143 38 26 34
85 70 135 81 36 8 78 29 97 47 23 23 108 66 143 73 l34 6 34 -109 c18 -59 54
-175 78 -257 37 -126 48 -152 71 -165 18 -12 24 -21 19 -31 -4 -8 -14 -49 -21
-90 -7 -41 -19 -80 -26 -86 -8 -6 -13 -34 -13 -70 -1 -32 -8 -103 -16 -156
-10 -66 -12 -106 -5 -122 6 -16 6 -27 0 -31 -5 -3 -10 -27 -10 -53 1 -26 0
-60 -1 -77 -1 -16 4 -66 11 -110 7 -44 11 -103 11 -130 -1 -28 7 -76 18 -107
16 -47 18 -62 8 -88 -12 -32 -12 -32 41 -220 12 -41 29 -105 39 -142 10 -38
21 -68 25 -68 4 0 5 -13 2 -29 -4 -21 0 -38 13 -58 36 -52 36 -61 -5 -73 -20
-5 -40 -10 -44 -10 -4 0 -27 -13 -51 -30 -25 -16 -58 -30 -73 -30 -33 -1 -105
-17 -144 -33 -8 -4 -108 -8 -221 -9 -187 -3 -209 -5 -228 -22 -26 -24 -28 -77
-3 -99 14 -13 54 -16 242 -18 211 -3 229 -1 283 19 34 13 80 22 112 22 30 0
55 4 55 9 0 13 122 73 131 64 4 -5 12 -25 17 -46 9 -30 8 -39 -3 -43 -8 -3
-17 -14 -20 -25 -4 -10 -11 -19 -18 -19 -6 0 -29 -9 -51 -19 -74 -35 -178 -71
-207 -71 -16 0 -43 -9 -61 -20 -29 -18 -51 -20 -194 -20 -143 0 -163 -2 -177
-18 -24 -26 -21 -65 5 -90 22 -19 36 -21 214 -23 184 -3 192 -2 219 19 15 12
41 22 58 22 40 0 155 38 186 62 13 10 35 18 48 18 14 0 33 10 44 23 l18 22
-11 -31 c-9 -24 -8 -40 5 -77 9 -27 12 -49 6 -52 -14 -9 -11 -71 5 -109 10
-24 11 -37 3 -45 -7 -7 -7 -21 0 -46 8 -26 8 -62 -3 -142 -8 -60 -12 -114 -9
-122 7 -19 -32 -279 -46 -307 -6 -12 -8 -31 -5 -42 4 -11 2 -23 -4 -27 -5 -3
-10 -21 -10 -39 0 -17 -11 -70 -25 -117 -13 -46 -25 -91 -25 -100 0 -9 -7 -30
-15 -45 -8 -16 -15 -41 -15 -55 0 -15 -7 -40 -15 -55 -8 -16 -15 -37 -15 -47
0 -9 -4 -26 -10 -37 -5 -11 -14 -29 -20 -40 -5 -11 -10 -33 -10 -50 0 -17 -4
-38 -10 -48 -5 -9 -17 -43 -26 -74 -8 -32 -19 -58 -23 -58 -4 0 -15 -35 -25
-77 -10 -43 -24 -85 -31 -93 -8 -9 -18 -40 -24 -70 -5 -30 -22 -100 -36 -155
-14 -55 -31 -120 -37 -145 -5 -25 -14 -49 -19 -54 -5 -6 -9 -20 -9 -32 0 -13
-4 -26 -10 -29 -5 -3 -9 -20 -8 -38 1 -31 -26 -152 -44 -192 -4 -11 -8 -31 -8
-45 -1 -34 -6 -82 -13 -100 -3 -8 -13 -67 -22 -130 -10 -63 -20 -119 -23 -125
-7 -10 -10 -67 -16 -295 -2 -74 -7 -143 -11 -153 -4 -10 -3 -34 2 -52 7 -23 7
-37 0 -44 -7 -7 -7 -24 -1 -54 7 -27 7 -51 1 -64 -6 -15 -5 -35 5 -65 11 -30
12 -51 6 -68 -7 -17 -6 -36 2 -57 6 -18 8 -48 5 -67 -4 -19 -2 -50 4 -69 7
-19 16 -57 20 -83 5 -27 25 -101 44 -164 68 -224 118 -386 138 -455 12 -38 32
-103 45 -144 13 -40 24 -78 24 -84 0 -6 9 -30 21 -53 11 -24 28 -71 38 -106
12 -44 24 -66 39 -73 12 -5 24 -22 27 -37 4 -14 16 -37 29 -50 12 -13 28 -43
36 -67 8 -23 24 -50 37 -58 13 -9 23 -24 23 -35 0 -11 13 -33 30 -48 17 -15
30 -33 30 -39 0 -17 23 -54 41 -68 9 -7 19 -24 23 -37 3 -14 15 -28 26 -31 11
-3 20 -12 20 -19 0 -7 11 -22 25 -34 14 -12 25 -29 25 -37 0 -8 11 -22 25 -31
14 -9 25 -23 25 -30 0 -8 4 -14 9 -14 5 0 40 -31 77 -70 38 -38 74 -70 81 -70
7 0 13 -6 13 -13 0 -7 17 -27 38 -45 71 -61 110 -92 116 -92 4 0 23 -18 43
-40 21 -23 46 -40 58 -40 13 0 27 -10 35 -25 7 -13 25 -29 39 -35 35 -14 58
-28 118 -73 28 -20 56 -37 62 -37 6 0 11 -4 11 -10 0 -5 11 -10 24 -10 13 0
29 -7 36 -15 17 -21 77 -48 89 -41 5 3 18 -5 29 -19 11 -14 27 -25 35 -25 9 0
18 -4 21 -9 3 -5 21 -12 40 -15 19 -4 45 -15 59 -26 14 -11 35 -20 46 -20 12
0 21 -4 21 -10 0 -5 13 -10 28 -10 16 0 37 -7 48 -15 10 -8 29 -15 41 -15 12
0 25 -5 28 -10 3 -6 15 -10 27 -10 11 0 32 -9 47 -20 15 -10 55 -23 89 -29 33
-5 69 -14 79 -19 10 -5 51 -15 90 -22 40 -6 75 -16 79 -21 3 -5 18 -9 35 -9
16 0 29 -4 29 -9 0 -5 22 -8 49 -8 27 0 57 -5 65 -12 10 -9 29 -11 50 -8 18 3
38 1 43 -4 5 -5 30 -11 54 -13 24 -2 51 -6 59 -9 15 -6 119 -18 175 -21 17 0
35 -4 41 -8 6 -4 48 -6 93 -4 45 2 84 -1 87 -6 4 -5 17 -7 31 -3 13 3 40 0 58
-6 27 -10 37 -10 49 0 13 11 19 11 31 1 11 -9 22 -9 50 0 26 9 39 9 49 1 10
-8 27 -9 54 -3 27 6 44 6 51 -1 7 -7 21 -7 46 0 23 8 37 8 41 1 4 -6 22 -7 48
-2 36 6 131 14 179 13 58 -1 79 0 147 4 41 2 86 9 100 14 16 7 32 7 46 1 15
-7 37 -6 74 5 38 11 57 13 70 5 12 -8 30 -6 69 7 33 11 65 15 86 11 23 -5 59
1 106 15 58 17 73 19 79 8 7 -10 29 -7 112 18 67 21 117 30 143 28 25 -3 70 5
120 21 53 17 91 23 113 19 23 -4 72 6 170 36 75 23 144 42 152 41 12 0 910
268 1315 392 61 19 137 42 170 51 33 9 76 25 95 34 19 10 100 37 180 61 102
30 151 50 165 65 11 13 49 32 85 43 73 23 123 46 139 66 6 7 49 23 96 37 54
15 96 33 114 50 17 15 57 34 96 44 44 12 72 26 81 41 9 13 37 28 74 38 33 9
66 26 73 37 8 10 37 26 64 34 33 10 52 22 56 34 3 12 21 23 56 32 31 8 60 23
75 40 15 17 39 30 64 34 27 4 43 14 52 30 7 13 26 27 42 30 16 4 36 17 44 30
10 15 29 26 53 30 26 4 42 14 51 31 8 13 18 24 23 24 21 0 77 33 77 46 0 8 7
14 15 14 9 0 27 11 41 25 14 14 27 25 30 25 18 0 74 34 74 45 0 7 12 16 28 20
15 3 39 18 53 33 50 51 77 72 93 72 8 0 23 11 32 25 9 14 22 25 30 25 7 0 21
11 30 25 9 14 22 25 30 25 7 0 21 11 30 25 9 14 25 25 35 25 11 0 19 7 19 15
0 8 10 20 23 26 12 7 50 40 83 73 34 34 70 68 80 77 11 9 40 39 65 67 25 27
56 53 67 57 12 3 22 14 22 24 0 15 86 99 112 109 4 2 8 12 8 22 0 10 16 32 35
49 19 17 35 35 35 41 0 6 7 13 15 16 8 4 15 14 15 23 0 9 13 28 30 41 16 14
29 28 30 32 0 4 16 23 35 42 19 20 35 42 35 49 0 8 11 26 25 41 14 15 25 36
25 46 0 10 6 23 14 27 7 4 23 26 35 48 12 22 25 47 30 55 5 8 12 22 15 30 4 8
15 29 26 45 11 17 22 37 26 45 3 8 12 26 19 40 33 63 46 89 70 145 15 33 35
78 45 100 45 99 58 134 73 198 15 62 28 98 59 164 6 12 8 29 4 38 -3 9 -1 23
4 33 15 28 44 228 55 377 1 17 5 38 9 47 5 10 3 31 -2 48 -6 17 -7 32 -2 35
10 6 6 161 -4 186 -4 10 -3 20 3 24 14 8 13 41 -3 86 -9 25 -9 40 -2 52 7 11
6 32 -4 69 -7 29 -13 64 -12 78 1 13 -5 48 -13 76 -8 29 -12 59 -9 68 5 13
-15 84 -111 396 -13 41 -38 122 -55 180 -17 58 -42 140 -56 182 -13 42 -24 84
-24 92 0 8 -11 28 -24 43 -14 16 -30 52 -37 79 -7 27 -20 55 -30 61 -9 7 -22
35 -29 63 -8 32 -20 56 -34 65 -13 9 -28 35 -36 65 -9 31 -20 52 -32 56 -10 3
-21 17 -25 32 -3 15 -19 40 -35 55 -15 16 -28 37 -28 48 0 10 -11 26 -24 35
-14 8 -27 28 -31 43 -3 16 -16 33 -29 39 -16 7 -26 22 -30 46 -4 22 -13 36
-22 36 -8 0 -20 12 -26 28 -7 15 -31 46 -55 69 -24 24 -43 47 -43 52 0 4 -23
30 -50 57 -28 27 -53 57 -56 66 -3 10 -12 18 -20 18 -8 0 -17 7 -21 16 -3 9
-17 27 -29 40 -13 12 -24 28 -24 34 0 5 -7 10 -16 10 -8 0 -20 14 -25 30 -6
16 -15 30 -20 30 -16 0 -69 43 -69 56 0 7 -29 34 -65 60 -37 27 -65 55 -65 65
0 10 -9 20 -19 24 -11 3 -36 21 -57 40 -21 19 -41 35 -45 35 -4 0 -11 9 -14
20 -3 11 -12 20 -19 20 -11 0 -112 85 -186 156 -48 46 -95 84 -112 90 -10 3
-18 10 -18 15 0 5 -6 9 -12 9 -7 0 -26 16 -43 35 -16 19 -33 35 -37 35 -4 0
-18 10 -32 23 -41 36 -93 77 -100 77 -11 0 -46 35 -46 46 0 7 -13 17 -30 23
-16 5 -30 14 -30 20 0 5 -18 17 -39 27 -25 11 -42 26 -46 41 -3 13 -13 23 -23
23 -9 0 -37 20 -62 45 -25 24 -49 44 -55 45 -5 0 -21 16 -35 35 -14 19 -32 37
-40 40 -8 3 -20 15 -25 27 -6 12 -27 31 -47 42 -21 11 -38 24 -38 30 0 6 -11
22 -25 36 -54 55 -75 82 -75 95 0 8 -4 15 -10 15 -14 0 -77 66 -85 90 -4 11
-17 27 -30 36 -13 8 -26 26 -29 38 -3 13 -15 26 -26 29 -11 3 -20 14 -20 25 0
10 -9 27 -20 37 -11 10 -20 24 -20 31 0 7 -16 29 -35 50 -20 20 -38 48 -41 61
-4 13 -16 31 -28 41 -12 9 -30 44 -40 76 -10 33 -27 71 -37 85 -16 22 -59 148
-59 173 0 5 17 8 38 8 67 0 195 54 244 103 13 12 34 17 79 17 51 0 64 4 80 23
10 12 18 30 19 40 0 9 7 17 15 17 8 0 23 9 32 20 10 11 24 20 31 20 28 0 42
28 42 84 0 48 -3 58 -24 71 -37 25 -77 16 -101 -23 -11 -18 -31 -35 -45 -38
-32 -7 -54 -23 -69 -51 -7 -15 -21 -23 -37 -23 -34 0 -91 -27 -132 -62 -18
-15 -40 -28 -50 -28 -9 0 -30 -7 -46 -15 -17 -9 -55 -15 -96 -15 l-69 0 -25
82 c-29 92 -30 98 -15 98 6 0 22 9 36 20 18 14 41 20 78 20 38 0 72 9 126 34
41 19 88 38 104 42 17 4 41 15 54 26 15 11 40 18 67 18 36 0 48 6 82 40 34 35
45 40 84 40 53 0 78 21 78 67 0 49 -25 63 -117 63 l-80 0 -39 -40 c-33 -34
-45 -40 -80 -40 -25 0 -47 -6 -54 -15 -7 -8 -31 -20 -54 -25 -22 -6 -73 -26
-112 -45 -55 -27 -85 -35 -127 -35 -36 0 -59 -5 -67 -15 -24 -29 -37 -14 -64
78 -36 124 -64 192 -86 212 -10 9 -26 48 -36 86 -10 38 -26 78 -35 87 -9 10
-23 35 -30 56 -8 21 -26 48 -41 61 -14 12 -32 41 -38 64 -6 23 -20 47 -30 54
-11 6 -20 16 -20 20 0 5 -11 22 -25 39 -14 16 -25 36 -25 43 0 7 -27 40 -60
73 -33 32 -60 66 -60 75 0 9 -28 40 -62 68 -35 29 -74 67 -88 85 -14 18 -29
33 -34 34 -4 0 -25 18 -46 39 -33 34 -36 41 -23 53 13 13 11 26 -16 104 -29
86 -106 341 -132 434 -7 25 -25 57 -40 71 -28 27 -47 88 -34 108 10 17 77 49
118 56 20 4 41 13 48 21 6 8 17 14 23 14 7 0 23 14 35 31 13 17 39 38 59 46
53 21 72 42 72 75 0 54 -67 84 -132 59 -13 -5 -41 -27 -63 -50 -28 -29 -56
-46 -95 -57 -30 -9 -71 -26 -90 -37 l-35 -21 30 32 c17 18 49 44 72 59 24 15
45 35 49 45 3 10 9 18 13 18 5 0 11 19 14 42 3 23 13 45 21 50 37 21 56 52 56
92 -1 54 -19 76 -62 76 -28 0 -44 -10 -91 -55 -35 -35 -57 -64 -57 -78 0 -40
-12 -67 -30 -67 -9 0 -25 -9 -35 -20 -10 -11 -21 -20 -24 -20 -3 0 -20 48 -36
106 -16 58 -38 114 -47 124 -10 10 -34 74 -54 142 -40 133 -47 148 -73 148
-12 0 -21 15 -31 53 -15 58 -30 87 -45 87 -6 0 -18 23 -28 50 -10 28 -22 50
-26 50 -5 0 -11 10 -15 23 -7 29 -71 82 -131 108 -24 11 -47 24 -50 29 -8 13
-41 11 -90 -5z"/>
</g>
</svg>
